<svg xmlns="http://www.w3.org/2000/svg" viewBox="0 0 200 200" width="200" height="200">
  <defs>
    <linearGradient id="solanaGradient" x1="0%" y1="0%" x2="100%" y2="100%">
      <stop offset="0%" style="stop-color:#9945FF;stop-opacity:1" />
      <stop offset="50%" style="stop-color:#14F195;stop-opacity:1" />
      <stop offset="100%" style="stop-color:#00D4FF;stop-opacity:1" />
    </linearGradient>
    <filter id="glow" x="-50%" y="-50%" width="200%" height="200%">
      <feGaussianBlur stdDeviation="4" result="coloredBlur"/>
      <feMerge> 
        <feMergeNode in="coloredBlur"/>
        <feMergeNode in="SourceGraphic"/>
      </feMerge>
    </filter>
    <filter id="shadow" x="-50%" y="-50%" width="200%" height="200%">
      <feDropShadow dx="2" dy="2" stdDeviation="3" flood-color="#000" flood-opacity="0.3"/>
    </filter>
  </defs>
  
  <!-- Background circle -->
  <circle cx="100" cy="100" r="95" fill="url(#solanaGradient)" stroke="#fff" stroke-width="4" filter="url(#glow)"/>
  
  <!-- Reward badge/gift icon -->
  <g transform="translate(100, 100)">
    <!-- Main badge shape -->
    <path d="M -30,-40 L 30,-40 L 35,-20 L 35,20 L 30,40 L -30,40 L -35,20 L -35,-20 Z" fill="#fff" opacity="0.95" filter="url(#shadow)"/>
    
    <!-- Inner highlight -->
    <path d="M -25,-35 L 25,-35 L 28,-18 L 28,18 L 25,35 L -25,35 L -28,18 L -28,-18 Z" fill="url(#solanaGradient)" opacity="0.8"/>
    
    <!-- Star symbol for rewards -->
    <path d="M 0,-15 L 4,-4 L 15,-4 L 6,2 L 10,13 L 0,7 L -10,13 L -6,2 L -15,-4 L -4,-4 Z" fill="#fff" opacity="0.95"/>
    
    <!-- Decorative circles -->
    <circle cx="-20" cy="-25" r="3" fill="#fff" opacity="0.6"/>
    <circle cx="20" cy="-25" r="3" fill="#fff" opacity="0.6"/>
    <circle cx="0" cy="25" r="4" fill="#fff" opacity="0.7"/>
  </g>
  
  <!-- Solana accent elements -->
  <circle cx="50" cy="50" r="3" fill="#14F195" opacity="0.8"/>
  <circle cx="150" cy="40" r="2.5" fill="#9945FF" opacity="0.7"/>
  <circle cx="40" cy="140" r="2" fill="#00D4FF" opacity="0.8"/>
  <circle cx="160" cy="150" r="3" fill="#14F195" opacity="0.6"/>
</svg>
